<svg xmlns="http://www.w3.org/2000/svg" viewBox="0 0 27 27" width="27" height="27">
	<style>
		tspan { white-space:pre }
		.shp0 { fill: #ffffff } 
	</style>
	<g id="Group 1">
		<g id="Toolbar">
			<path id="Search Button" class="shp0" d="M24.86 23.5L18.18 16.82C19.45 15.26 20.21 13.27 20.21 11.1C20.21 6.08 16.12 2 11.1 2C6.08 2 2 6.08 2 11.1C2 16.12 6.08 20.21 11.1 20.21C13.27 20.21 15.26 19.44 16.82 18.18L23.5 24.86C23.69 25.05 23.99 25.05 24.18 24.86L24.86 24.18C25.05 23.99 25.05 23.69 24.86 23.5ZM11.1 18.29C7.14 18.29 3.92 15.07 3.92 11.1C3.92 7.14 7.14 3.92 11.1 3.92C15.07 3.92 18.29 7.14 18.29 11.1C18.29 15.07 15.07 18.29 11.1 18.29Z" />
		</g>
	</g>
</svg>